<?plantuml 1.2026.1?><svg xmlns="http://www.w3.org/2000/svg" xmlns:xlink="http://www.w3.org/1999/xlink" contentStyleType="text/css" data-diagram-type="DESCRIPTION" height="502px" preserveAspectRatio="none" style="width:1090px;height:502px;background:#FFFFFF;" version="1.1" viewBox="0 0 1090 502" width="1090px" zoomAndPan="magnify"><defs/><g><!--cluster Mender Fleet Simulator--><g class="cluster" data-qualified-name="Mender Fleet Simulator" data-source-line="4" id="ent0002"><path d="M13.5,11 L201.0049,11 A3.75,3.75 0 0 1 203.5049,13.5 L210.5049,33.2969 L928.5,33.2969 A2.5,2.5 0 0 1 931,35.7969 L931,492.69 A2.5,2.5 0 0 1 928.5,495.19 L13.5,495.19 A2.5,2.5 0 0 1 11,492.69 L11,13.5 A2.5,2.5 0 0 1 13.5,11" fill="#FFFFFF" style="stroke:#000000;stroke-width:1;"/><line style="stroke:#000000;stroke-width:1;" x1="11" x2="210.5049" y1="33.2969" y2="33.2969"/><text fill="#000000" font-family="Verdana" font-size="14" font-weight="bold" lengthAdjust="spacing" textLength="186.5049" x="15" y="25.9951">Mender Fleet Simulator</text></g><!--cluster Database Layer--><g class="cluster" data-qualified-name="Mender Fleet Simulator.Database Layer" data-source-line="7" id="ent0004"><path d="M37.5,129.3 L161.7725,129.3 A3.75,3.75 0 0 1 164.2725,131.8 L171.2725,151.5969 L212.5,151.5969 A2.5,2.5 0 0 1 215,154.0969 L215,332.39 A2.5,2.5 0 0 1 212.5,334.89 L37.5,334.89 A2.5,2.5 0 0 1 35,332.39 L35,131.8 A2.5,2.5 0 0 1 37.5,129.3" fill="#FFFFFF" style="stroke:#000000;stroke-width:1;"/><line style="stroke:#000000;stroke-width:1;" x1="35" x2="171.2725" y1="151.5969" y2="151.5969"/><text fill="#000000" font-family="Verdana" font-size="14" font-weight="bold" lengthAdjust="spacing" textLength="123.2725" x="39" y="144.2951">Database Layer</text></g><!--cluster Client Layer--><g class="cluster" data-qualified-name="Mender Fleet Simulator.Client Layer" data-source-line="12" id="ent0007"><path d="M433.5,247.6 L529.2939,247.6 A3.75,3.75 0 0 1 531.7939,250.1 L538.7939,269.8969 L904.5,269.8969 A2.5,2.5 0 0 1 907,272.3969 L907,332.39 A2.5,2.5 0 0 1 904.5,334.89 L433.5,334.89 A2.5,2.5 0 0 1 431,332.39 L431,250.1 A2.5,2.5 0 0 1 433.5,247.6" fill="#FFFFFF" style="stroke:#000000;stroke-width:1;"/><line style="stroke:#000000;stroke-width:1;" x1="431" x2="538.7939" y1="269.8969" y2="269.8969"/><text fill="#000000" font-family="Verdana" font-size="14" font-weight="bold" lengthAdjust="spacing" textLength="94.7939" x="435" y="262.5951">Client Layer</text></g><!--cluster Simulation Layer--><g class="cluster" data-qualified-name="Mender Fleet Simulator.Simulation Layer" data-source-line="18" id="ent0011"><path d="M241.5,129.3 L376.0264,129.3 A3.75,3.75 0 0 1 378.5264,131.8 L385.5264,151.5969 L404.5,151.5969 A2.5,2.5 0 0 1 407,154.0969 L407,332.39 A2.5,2.5 0 0 1 404.5,334.89 L241.5,334.89 A2.5,2.5 0 0 1 239,332.39 L239,131.8 A2.5,2.5 0 0 1 241.5,129.3" fill="#FFFFFF" style="stroke:#000000;stroke-width:1;"/><line style="stroke:#000000;stroke-width:1;" x1="239" x2="385.5264" y1="151.5969" y2="151.5969"/><text fill="#000000" font-family="Verdana" font-size="14" font-weight="bold" lengthAdjust="spacing" textLength="133.5264" x="243" y="144.2951">Simulation Layer</text></g><!--cluster Utils--><g class="cluster" data-qualified-name="Mender Fleet Simulator.Utils" data-source-line="23" id="ent0014"><path d="M447.5,383.89 L484.4912,383.89 A3.75,3.75 0 0 1 486.9912,386.39 L493.9912,406.1869 L640.5,406.1869 A2.5,2.5 0 0 1 643,408.6869 L643,468.69 A2.5,2.5 0 0 1 640.5,471.19 L447.5,471.19 A2.5,2.5 0 0 1 445,468.69 L445,386.39 A2.5,2.5 0 0 1 447.5,383.89" fill="#FFFFFF" style="stroke:#000000;stroke-width:1;"/><line style="stroke:#000000;stroke-width:1;" x1="445" x2="493.9912" y1="406.1869" y2="406.1869"/><text fill="#000000" font-family="Verdana" font-size="14" font-weight="bold" lengthAdjust="spacing" textLength="35.9912" x="449" y="398.8851">Utils</text></g><!--entity main--><g class="entity" data-qualified-name="Mender Fleet Simulator.main" data-source-line="5" id="ent0003"><rect fill="#FFFFFF" height="36.2969" rx="2.5" ry="2.5" style="stroke:#000000;stroke-width:1;" width="146.7588" x="150.62" y="46"/><text fill="#000000" font-family="Verdana" font-size="14" lengthAdjust="spacing" textLength="126.7588" x="160.62" y="68.9951">Main Orchestrator</text></g><!--entity db--><g class="entity" data-qualified-name="Mender Fleet Simulator.Database Layer.db" data-source-line="8" id="ent0005"><rect fill="#FFFFFF" height="36.2969" rx="2.5" ry="2.5" style="stroke:#000000;stroke-width:1;" width="148.167" x="50.92" y="164.3"/><text fill="#000000" font-family="Verdana" font-size="14" lengthAdjust="spacing" textLength="128.167" x="60.92" y="187.2951">DatabaseManager</text></g><!--entity sqlite--><g class="entity" data-qualified-name="Mender Fleet Simulator.Database Layer.sqlite" data-source-line="9" id="ent0006"><rect fill="#FFFFFF" height="36.2969" rx="2.5" ry="2.5" style="stroke:#000000;stroke-width:1;" width="65.6982" x="92.15" y="282.6"/><text fill="#000000" font-family="Verdana" font-size="14" lengthAdjust="spacing" textLength="45.6982" x="102.15" y="305.5951">SQLite</text></g><!--entity auth--><g class="entity" data-qualified-name="Mender Fleet Simulator.Client Layer.auth" data-source-line="13" id="ent0008"><rect fill="#FFFFFF" height="36.2969" rx="2.5" ry="2.5" style="stroke:#000000;stroke-width:1;" width="93.3428" x="447.33" y="282.6"/><text fill="#000000" font-family="Verdana" font-size="14" lengthAdjust="spacing" textLength="73.3428" x="457.33" y="305.5951">AuthClient</text></g><!--entity inv--><g class="entity" data-qualified-name="Mender Fleet Simulator.Client Layer.inv" data-source-line="14" id="ent0009"><rect fill="#FFFFFF" height="36.2969" rx="2.5" ry="2.5" style="stroke:#000000;stroke-width:1;" width="127.3994" x="575.3" y="282.6"/><text fill="#000000" font-family="Verdana" font-size="14" lengthAdjust="spacing" textLength="107.3994" x="585.3" y="305.5951">InventoryClient</text></g><!--entity deploy--><g class="entity" data-qualified-name="Mender Fleet Simulator.Client Layer.deploy" data-source-line="15" id="ent0010"><rect fill="#FFFFFF" height="36.2969" rx="2.5" ry="2.5" style="stroke:#000000;stroke-width:1;" width="153.458" x="737.27" y="282.6"/><text fill="#000000" font-family="Verdana" font-size="14" lengthAdjust="spacing" textLength="133.458" x="747.27" y="305.5951">DeploymentsClient</text></g><!--entity sim--><g class="entity" data-qualified-name="Mender Fleet Simulator.Simulation Layer.sim" data-source-line="19" id="ent0012"><rect fill="#FFFFFF" height="36.2969" rx="2.5" ry="2.5" style="stroke:#000000;stroke-width:1;" width="135.4453" x="255.28" y="164.3"/><text fill="#000000" font-family="Verdana" font-size="14" lengthAdjust="spacing" textLength="115.4453" x="265.28" y="187.2951">DeviceSimulator</text></g><!--entity profile--><g class="entity" data-qualified-name="Mender Fleet Simulator.Simulation Layer.profile" data-source-line="20" id="ent0013"><rect fill="#FFFFFF" height="36.2969" rx="2.5" ry="2.5" style="stroke:#000000;stroke-width:1;" width="121.6709" x="262.16" y="282.6"/><text fill="#000000" font-family="Verdana" font-size="14" lengthAdjust="spacing" textLength="101.6709" x="272.16" y="305.5951">IndustryProfile</text></g><!--entity config--><g class="entity" data-qualified-name="Mender Fleet Simulator.Utils.config" data-source-line="24" id="ent0015"><rect fill="#FFFFFF" height="36.2969" rx="2.5" ry="2.5" style="stroke:#000000;stroke-width:1;" width="64.9189" x="562.54" y="418.89"/><text fill="#000000" font-family="Verdana" font-size="14" lengthAdjust="spacing" textLength="44.9189" x="572.54" y="441.8851">Config</text></g><!--entity crypto--><g class="entity" data-qualified-name="Mender Fleet Simulator.Utils.crypto" data-source-line="25" id="ent0016"><rect fill="#FFFFFF" height="36.2969" rx="2.5" ry="2.5" style="stroke:#000000;stroke-width:1;" width="66.7578" x="460.62" y="418.89"/><text fill="#000000" font-family="Verdana" font-size="14" lengthAdjust="spacing" textLength="46.7578" x="470.62" y="441.8851">Crypto</text></g><!--entity mender--><g class="entity" data-qualified-name="mender" data-source-line="29" id="ent0017"><path d="M956.5497,423.0451 C959.7689,415.852 965.1176,415.7541 969.2286,422.2171 C972.2515,416.8287 976.2838,417.2556 979.3512,422.1734 C982.1731,416.3243 987.9006,415.9462 991.3247,421.5434 C994.6472,416.187 1001.079,415.5416 1004.4327,421.5074 C1007.094,416.2259 1012.2243,415.7323 1015.6703,420.6421 C1018.8533,414.535 1024.8506,415.2027 1027.7393,420.9419 C1031.0331,416.9202 1034.6629,415.8075 1037.7072,421.2059 C1042.3625,415.8552 1046.7403,414.9266 1051.0873,421.5503 C1054.8535,416.9574 1060.2063,417.1829 1062.218,423.3631 C1065.9587,418.9754 1069.6014,418.8171 1073.1786,423.5593 C1081.5357,426.3653 1081.0988,432.5867 1076.1272,438.0962 C1083.8044,443.7813 1082.6627,450.165 1074.4868,454.2393 C1069.7631,460.1134 1065.7757,459.7211 1061.6332,453.6156 C1058.6412,459.3481 1053.3563,460.9725 1049.1607,454.8858 C1045.8042,459.6651 1040.6847,460.2726 1037.6297,454.5546 C1033.3182,460.2693 1029.2551,459.8381 1026.0155,453.52 C1023.408,457.9558 1018.2756,459.2892 1015.3758,453.8345 C1011.4779,460.1185 1006.4912,458.8028 1003.1587,453.2509 C1000.5913,460.0846 995.3497,460.0363 991.0162,455.0679 C987.4168,459.8898 982.1639,459.2355 979.3999,454.0938 C976.6237,459.2379 971.563,458.8234 968.5311,454.3838 C964.8584,459.819 958.5267,460.0097 955.8591,453.3323 C948.8756,449.1262 947.6575,443.1004 955.073,438.1488 C947.1897,433.18 948.5084,426.4568 956.5497,423.0451" fill="#FFFFFF" style="stroke:#000000;stroke-width:1;"/><text fill="#000000" font-family="Verdana" font-size="14" lengthAdjust="spacing" textLength="103.1816" x="962.41" y="441.8851">Mender Server</text></g><!--link main to db--><g class="link" data-entity-1="ent0003" data-entity-2="ent0005" data-link-type="dependency" data-source-line="31" id="lnk18"><path d="M209.18,82.56 C190.52,104.49 162.5191,137.3711 143.8091,159.3511" fill="none" id="main-to-db" style="stroke:#000000;stroke-width:1;"/><polygon fill="#000000" points="139.92,163.92,148.7996,159.6595,143.161,160.1126,142.7078,154.4739,139.92,163.92" style="stroke:#000000;stroke-width:1;"/></g><!--link main to sim--><g class="link" data-entity-1="ent0003" data-entity-2="ent0012" data-link-type="dependency" data-source-line="32" id="lnk19"><path d="M238.82,82.56 C257.48,104.49 285.4809,137.3711 304.1909,159.3511" fill="none" id="main-to-sim" style="stroke:#000000;stroke-width:1;"/><polygon fill="#000000" points="308.08,163.92,305.2922,154.4739,304.839,160.1126,299.2004,159.6595,308.08,163.92" style="stroke:#000000;stroke-width:1;"/></g><!--link sim to auth--><g class="link" data-entity-1="ent0012" data-entity-2="ent0008" data-link-type="dependency" data-source-line="33" id="lnk20"><path d="M349.55,201.04 C366.12,212.06 387.85,226.58 407,239.6 C427.96,253.84 446.6742,266.7841 464.0142,278.8441" fill="none" id="sim-to-auth" style="stroke:#000000;stroke-width:1;"/><polygon fill="#000000" points="468.94,282.27,463.8353,273.8473,464.8352,279.4151,459.2674,280.415,468.94,282.27" style="stroke:#000000;stroke-width:1;"/></g><!--link sim to inv--><g class="link" data-entity-1="ent0012" data-entity-2="ent0009" data-link-type="dependency" data-source-line="34" id="lnk21"><path d="M390.99,192.25 C439.26,200.25 504.69,214.72 558,239.6 C581.33,250.48 600.0537,264.7613 615.6137,278.3013" fill="none" id="sim-to-inv" style="stroke:#000000;stroke-width:1;"/><polygon fill="#000000" points="620.14,282.24,615.9764,273.3145,616.3681,278.9578,610.7248,279.3495,620.14,282.24" style="stroke:#000000;stroke-width:1;"/></g><!--link sim to deploy--><g class="link" data-entity-1="ent0012" data-entity-2="ent0010" data-link-type="dependency" data-source-line="35" id="lnk22"><path d="M391.17,184.33 C472.01,187.34 609.69,198.72 720,239.6 C747.07,249.63 769.7036,264.7157 787.8836,278.6157" fill="none" id="sim-to-deploy" style="stroke:#000000;stroke-width:1;"/><polygon fill="#000000" points="792.65,282.26,787.9299,273.6159,788.678,279.2231,783.0708,279.9712,792.65,282.26" style="stroke:#000000;stroke-width:1;"/></g><!--link sim to profile--><g class="link" data-entity-1="ent0012" data-entity-2="ent0013" data-link-type="dependency" data-source-line="36" id="lnk23"><path d="M323,200.86 C323,222.78 323,254.23 323,276.21" fill="none" id="sim-to-profile" style="stroke:#000000;stroke-width:1;"/><polygon fill="#000000" points="323,282.21,327,273.21,323,277.21,319,273.21,323,282.21" style="stroke:#000000;stroke-width:1;"/></g><!--link auth to crypto--><g class="link" data-entity-1="ent0008" data-entity-2="ent0016" data-link-type="dependency" data-source-line="37" id="lnk24"><path d="M494,319.3 C494,345.04 494,386.74 494,412.48" fill="none" id="auth-to-crypto" style="stroke:#000000;stroke-width:1;"/><polygon fill="#000000" points="494,418.48,498,409.48,494,413.48,490,409.48,494,418.48" style="stroke:#000000;stroke-width:1;"/></g><!--link db to sqlite--><g class="link" data-entity-1="ent0005" data-entity-2="ent0006" data-link-type="dependency" data-source-line="38" id="lnk25"><path d="M125,200.86 C125,222.78 125,254.23 125,276.21" fill="none" id="db-to-sqlite" style="stroke:#000000;stroke-width:1;"/><polygon fill="#000000" points="125,282.21,129,273.21,125,277.21,121,273.21,125,282.21" style="stroke:#000000;stroke-width:1;"/></g><!--link auth to mender--><g class="link" data-entity-1="ent0008" data-entity-2="ent0017" data-link-type="dependency" data-source-line="40" id="lnk26"><path d="M518.03,319.38 C529.68,327.35 544.12,336.41 558,342.89 C591.75,358.66 601.83,359 638,367.89 C744.94,394.19 865.357,414.1456 940.977,425.5456" fill="none" id="auth-to-mender" style="stroke:#000000;stroke-width:1;"/><polygon fill="#000000" points="946.91,426.44,938.6068,421.1431,941.9659,425.6947,937.4143,429.0537,946.91,426.44" style="stroke:#000000;stroke-width:1;"/><text fill="#000000" font-family="Verdana" font-size="13" lengthAdjust="spacing" textLength="95.4307" x="639" y="363.9569">Authentication</text></g><!--link inv to mender--><g class="link" data-entity-1="ent0009" data-entity-2="ent0017" data-link-type="dependency" data-source-line="41" id="lnk27"><path d="M670.37,319.19 C685.16,327.02 703.21,336.02 720,342.89 C796.06,374.02 880.8315,399.6949 941.1515,416.5549" fill="none" id="inv-to-mender" style="stroke:#000000;stroke-width:1;"/><polygon fill="#000000" points="946.93,418.17,939.339,411.8949,942.1146,416.824,937.1855,419.5996,946.93,418.17" style="stroke:#000000;stroke-width:1;"/><text fill="#000000" font-family="Verdana" font-size="13" lengthAdjust="spacing" textLength="120.0786" x="784" y="363.9569">Inventory Updates</text></g><!--link deploy to mender--><g class="link" data-entity-1="ent0010" data-entity-2="ent0017" data-link-type="dependency" data-source-line="42" id="lnk28"><path d="M873.7,319.39 C894.77,327.18 917.93,337.63 937,350.89 C961.7,368.08 980.4455,389.8234 994.6255,408.6934" fill="none" id="deploy-to-mender" style="stroke:#000000;stroke-width:1;"/><polygon fill="#000000" points="998.23,413.49,996.0211,403.8921,995.2263,409.4928,989.6255,408.698,998.23,413.49" style="stroke:#000000;stroke-width:1;"/><text fill="#000000" font-family="Verdana" font-size="13" lengthAdjust="spacing" textLength="125.0742" x="957" y="363.9569">Deployment Status</text></g><?plantuml-src PL7BQiCm4BphAxQvvmTwA9IKGY6XBIQdqiD6tYGYUbMI3QRqtxkIRETr4AncjBEZsOTq94FWDIehuabPZm4DI6UyisHJamPD44Wcj0TDGdYK9pmGB3PaMmhmgeaIDCfq6fCB2_WL05yRbeFt88yKKyZuDs04auSmFMkyOC8THe8r3ZJsSlS4Rz3oizhRxYhNVAvLeWB57yqbmtzNeYkjsFYDv7ENZfKehSZNIhpPda4NXWjMsNuqGbwxmJ0UB-Yse7TpnmoKixVVeLv9cYEgtfMPvhSTPpHy1BTNkdxCr_fkmZOf7MVPbRDxTIWDifGZ70QVN8LBMMHOI6hNjVFU6WfzzfZNKX0XydfWkNpAMSzrDigdr2MrwP93ckenaUaw-S_l2p0QQNTLikxjJ5S3y0XvIvooaYL6mIEk-NbPiFKj9egYJhv-TTuQD0bJ5yK_?></g></svg>